<?xml version="1.0" standalone="no"?>
<!DOCTYPE svg PUBLIC "-//W3C//DTD SVG 20010904//EN"
 "http://www.w3.org/TR/2001/REC-SVG-20010904/DTD/svg10.dtd">
<svg version="1.0" xmlns="http://www.w3.org/2000/svg"
 width="212.000000pt" height="212.000000pt" viewBox="0 0 212.000000 212.000000"
 preserveAspectRatio="xMidYMid meet">
<metadata>
Created by potrace 1.11, written by Peter Selinger 2001-2013
</metadata>
<g transform="translate(0.000000,212.000000) scale(0.100000,-0.100000)"
fill="#000000" stroke="none">
<path d="M898 2055 c-2 -2 -28 -6 -58 -9 -123 -14 -250 -43 -250 -57 0 -6 -4
-7 -10 -4 -5 3 -16 3 -22 -2 -7 -4 -18 -8 -25 -9 -26 -4 -162 -78 -167 -91 -3
-8 -10 -12 -16 -8 -5 3 -47 -31 -92 -77 -86 -86 -137 -167 -174 -278 -32 -96
-21 -326 19 -377 5 -7 6 -13 3 -13 -4 0 5 -24 21 -52 40 -77 122 -198 133
-198 6 0 9 -3 8 -7 -5 -14 130 -159 143 -156 5 2 8 -3 6 -10 -1 -6 4 -11 10
-10 7 2 12 -1 10 -6 -1 -4 17 -27 41 -50 23 -22 42 -39 42 -37 0 3 78 -71 285
-273 115 -112 227 -232 247 -264 7 -11 65 51 60 65 -1 4 5 8 13 8 8 0 15 4 15
8 0 4 32 41 70 81 39 40 70 76 70 82 0 5 4 8 8 7 4 -2 28 17 53 42 25 25 70
68 100 95 29 28 53 53 51 57 -1 5 3 7 10 5 7 -1 12 5 13 13 0 8 5 15 11 15 14
0 94 72 94 85 0 5 3 9 8 8 20 -7 243 238 305 335 57 89 115 222 103 234 -3 4
0 13 7 21 16 20 16 213 -1 272 -17 59 -91 210 -103 210 -5 0 -9 6 -9 13 -1 35
-237 224 -267 213 -7 -3 -13 -1 -13 3 0 7 -75 42 -100 47 -3 0 -17 6 -31 11
-14 6 -40 13 -57 16 -17 3 -34 7 -39 10 -8 5 -73 15 -148 24 -46 6 -372 12
-377 8z"/>
</g>
</svg>
